<?xml version="1.0" encoding="UTF-8" standalone="no"?>
<!-- Created with Inkscape (http://www.inkscape.org/) -->

<svg
   xmlns:dc="http://purl.org/dc/elements/1.1/"
   xmlns:cc="http://creativecommons.org/ns#"
   xmlns:rdf="http://www.w3.org/1999/02/22-rdf-syntax-ns#"
   xmlns:svg="http://www.w3.org/2000/svg"
   xmlns="http://www.w3.org/2000/svg"
   version="1.1"
   width="79.017662"
   height="77.968056"
   id="svg3054">
  <metadata
     id="metadata3060">
    <rdf:RDF>
      <cc:Work
         rdf:about="">
        <dc:format>image/svg+xml</dc:format>
        <dc:type
           rdf:resource="http://purl.org/dc/dcmitype/StillImage" />
        <dc:title></dc:title>
      </cc:Work>
    </rdf:RDF>
  </metadata>
  <defs
     id="defs3058" />



  <g
     inkscape:label="Calque 1"
     inkscape:groupmode="layer"
     id="silkscreen"
     style="display:inline">


<path
     d="m 111.48337,131.56044 a 45.562767,51.379292 0 1 1 -3e-4,-0.1862"
     transform="matrix(0.79891476,0,0,0.70519437,-13.157127,-53.793108)"
     id="path3945"
     style="fill:#ffff00;fill-opacity:0;stroke:#0000fa;stroke-width:7.80700016;stroke-miterlimit:4;stroke-opacity:1;stroke-dasharray:none" />


  </g>


 <g
     id="copper1">
    <g
       id="copper0">



  <path
     d="m 119.27419,115.84677 a 26.505377,34.502689 0 1 1 -53.010753,0 26.505377,34.502689 0 1 1 53.010753,0 z"
     transform="matrix(0.2577196,0,0,0.20229687,15.660438,31.255499)"
     id="path3091-6-5"
     style="fill:#ffff00;fill-opacity:0;stroke:#ffc000;stroke-width:27.78819656;stroke-miterlimit:4;stroke-opacity:1;stroke-dasharray:none" />
  <path
     d="m 119.27419,115.84677 a 26.505377,34.502689 0 1 1 -53.010753,0 26.505377,34.502689 0 1 1 53.010753,0 z"
     transform="matrix(0.2577196,0,0,0.20229687,4.7660565,5.150664)"
     id="path3091-6-5-0"
     style="fill:#ffff00;fill-opacity:0;stroke:#ffc000;stroke-width:27.78819656;stroke-miterlimit:4;stroke-opacity:1;stroke-dasharray:none" />
  <path
     d="m 119.27419,115.84677 a 26.505377,34.502689 0 1 1 -53.010753,0 26.505377,34.502689 0 1 1 53.010753,0 z"
     transform="matrix(0.2577196,0,0,0.20229687,26.673873,5.329259)"
     id="path3091-6-5-2"
     style="fill:#ffff00;fill-opacity:0;stroke:#ffc000;stroke-width:27.78819656;stroke-miterlimit:4;stroke-opacity:1;stroke-dasharray:none" />

    </g>
  </g>

  
</svg>
