<?xml version="1.0" encoding="UTF-8" standalone="no"?>
<!-- Created with Inkscape (http://www.inkscape.org/) -->

<svg
   xmlns:dc="http://purl.org/dc/elements/1.1/"
   xmlns:cc="http://creativecommons.org/ns#"
   xmlns:rdf="http://www.w3.org/1999/02/22-rdf-syntax-ns#"
   xmlns:svg="http://www.w3.org/2000/svg"
   xmlns="http://www.w3.org/2000/svg"
   xmlns:sodipodi="http://sodipodi.sourceforge.net/DTD/sodipodi-0.dtd"
   xmlns:inkscape="http://www.inkscape.org/namespaces/inkscape"
   id="svg40163"
   version="1.1"
   inkscape:version="0.48.4 r9939"
   width="73.027557"
   height="75.088448"
   sodipodi:docname="Jack.svg">
  <metadata
     id="metadata40169">
    <rdf:RDF>
      <cc:Work
         rdf:about="">
        <dc:format>image/svg+xml</dc:format>
        <dc:type
           rdf:resource="http://purl.org/dc/dcmitype/StillImage" />
        <dc:title />
      </cc:Work>
    </rdf:RDF>
  </metadata>
  <defs
     id="defs40167" />
  <sodipodi:namedview
     pagecolor="#ffffff"
     bordercolor="#666666"
     borderopacity="1"
     objecttolerance="10"
     gridtolerance="10"
     guidetolerance="10"
     inkscape:pageopacity="0"
     inkscape:pageshadow="2"
     inkscape:window-width="1280"
     inkscape:window-height="776"
     id="namedview40165"
     showgrid="false"
     inkscape:zoom="2.0611354"
     inkscape:cx="31.293562"
     inkscape:cy="25.289876"
     inkscape:window-x="0"
     inkscape:window-y="0"
     inkscape:window-maximized="1"
     inkscape:current-layer="svg40163"
     fit-margin-top="0"
     fit-margin-left="0"
     fit-margin-right="0"
     fit-margin-bottom="0" />
  <g
     inkscape:label="Calque 1"
     inkscape:groupmode="layer"
     id="silkscreen"
     style="display:inline">
    <rect
       style="fill:#ffff00;fill-opacity:0;stroke:#0000fa;stroke-width:1.69874442;stroke-miterlimit:4;stroke-opacity:1;stroke-dasharray:none;display:inline"
       id="rect5864"
       width="71.328812"
       height="73.389702"
       x="0.84937221"
       y="0.84937221" />
  </g>
  <g
     id="copper1">
    <g
       id="copper0">
      <path
         sodipodi:type="arc"
         style="fill:#ffff00;fill-opacity:0;stroke:#f7bd13;stroke-width:14.50307369;stroke-miterlimit:4;stroke-opacity:1;stroke-dasharray:none;display:inline"
         id="path5872"
         sodipodi:cx="210"
         sodipodi:cy="444.86218"
         sodipodi:rx="40"
         sodipodi:ry="37.5"
         d="m 250,444.86218 c 0,20.71068 -17.90861,37.5 -40,37.5 -22.09139,0 -40,-16.78932 -40,-37.5 0,-20.71068 17.90861,-37.5 40,-37.5 22.09139,0 40,16.78932 40,37.5 z"
         transform="matrix(0.15209487,0,0,0.15711569,-17.262602,-60.0588)" />
      <rect
         style="fill:#ffff00;fill-opacity:0;stroke:#ffc000;stroke-width:3.04606771;stroke-miterlimit:4;stroke-opacity:1;stroke-dasharray:none;display:inline"
         id="rect5874"
         width="13.043819"
         height="12.701605"
         x="8.0992193"
         y="3.4736092"
         ry="0" />
      <path
         sodipodi:type="arc"
         style="fill:#ffff00;fill-opacity:0;stroke:#f7bd13;stroke-width:14.50307369;stroke-miterlimit:4;stroke-opacity:1;stroke-dasharray:none;display:inline"
         id="path5872-7"
         sodipodi:cx="210"
         sodipodi:cy="444.86218"
         sodipodi:rx="40"
         sodipodi:ry="37.5"
         d="m 250,444.86218 c 0,20.71068 -17.90861,37.5 -40,37.5 -22.09139,0 -40,-16.78932 -40,-37.5 0,-20.71068 17.90861,-37.5 40,-37.5 22.09139,0 40,16.78932 40,37.5 z"
         transform="matrix(0.15209487,0,0,0.15711569,4.7996096,-60.030926)" />
      <rect
         style="fill:#ffff00;fill-opacity:0;stroke:#ffc000;stroke-width:3.04606771;stroke-miterlimit:4;stroke-opacity:1;stroke-dasharray:none;display:inline"
         id="rect5874-9"
         width="13.043819"
         height="12.701605"
         x="30.161438"
         y="3.501487"
         ry="0" />
      <path
         sodipodi:type="arc"
         style="fill:#ffff00;fill-opacity:0;stroke:#f7bd13;stroke-width:14.50307369;stroke-miterlimit:4;stroke-opacity:1;stroke-dasharray:none;display:inline"
         id="path5872-77"
         sodipodi:cx="210"
         sodipodi:cy="444.86218"
         sodipodi:rx="40"
         sodipodi:ry="37.5"
         d="m 250,444.86218 c 0,20.71068 -17.90861,37.5 -40,37.5 -22.09139,0 -40,-16.78932 -40,-37.5 0,-20.71068 17.90861,-37.5 40,-37.5 22.09139,0 40,16.78932 40,37.5 z"
         transform="matrix(0.15209487,0,0,0.15711569,26.649934,-59.629978)" />
      <rect
         style="fill:#ffff00;fill-opacity:0;stroke:#ffc000;stroke-width:3.04606771;stroke-miterlimit:4;stroke-opacity:1;stroke-dasharray:none;display:inline"
         id="rect5874-2"
         width="13.043819"
         height="12.701605"
         x="52.011765"
         y="3.9024346"
         ry="0" />
      <path
         sodipodi:type="arc"
         style="fill:#ffff00;fill-opacity:0;stroke:#f7bd13;stroke-width:14.50307369;stroke-miterlimit:4;stroke-opacity:1;stroke-dasharray:none;display:inline"
         id="path5872-8"
         sodipodi:cx="210"
         sodipodi:cy="444.86218"
         sodipodi:rx="40"
         sodipodi:ry="37.5"
         d="m 250,444.86218 c 0,20.71068 -17.90861,37.5 -40,37.5 -22.09139,0 -40,-16.78932 -40,-37.5 0,-20.71068 17.90861,-37.5 40,-37.5 22.09139,0 40,16.78932 40,37.5 z"
         transform="matrix(0.15209487,0,0,0.15711569,-17.598781,-4.308093)" />
      <rect
         style="fill:#ffff00;fill-opacity:0;stroke:#ffc000;stroke-width:3.04606771;stroke-miterlimit:4;stroke-opacity:1;stroke-dasharray:none;display:inline"
         id="rect5874-4"
         width="13.043819"
         height="12.701605"
         x="7.7630382"
         y="59.224319"
         ry="0" />
      <path
         sodipodi:type="arc"
         style="fill:#ffff00;fill-opacity:0;stroke:#f7bd13;stroke-width:14.50307369;stroke-miterlimit:4;stroke-opacity:1;stroke-dasharray:none;display:inline"
         id="path5872-4"
         sodipodi:cx="210"
         sodipodi:cy="444.86218"
         sodipodi:rx="40"
         sodipodi:ry="37.5"
         d="m 250,444.86218 c 0,20.71068 -17.90861,37.5 -40,37.5 -22.09139,0 -40,-16.78932 -40,-37.5 0,-20.71068 17.90861,-37.5 40,-37.5 22.09139,0 40,16.78932 40,37.5 z"
         transform="matrix(0.15209487,0,0,0.15711569,4.8178366,-4.042492)" />
      <rect
         style="fill:#ffff00;fill-opacity:0;stroke:#ffc000;stroke-width:3.04606771;stroke-miterlimit:4;stroke-opacity:1;stroke-dasharray:none;display:inline"
         id="rect5874-8"
         width="13.043819"
         height="12.701605"
         x="30.179665"
         y="59.489914"
         ry="0" />
      <path
         sodipodi:type="arc"
         style="fill:#ffff00;fill-opacity:0;stroke:#f7bd13;stroke-width:14.50307369;stroke-miterlimit:4;stroke-opacity:1;stroke-dasharray:none;display:inline"
         id="path5872-81"
         sodipodi:cx="210"
         sodipodi:cy="444.86218"
         sodipodi:rx="40"
         sodipodi:ry="37.5"
         d="m 250,444.86218 c 0,20.71068 -17.90861,37.5 -40,37.5 -22.09139,0 -40,-16.78932 -40,-37.5 0,-20.71068 17.90861,-37.5 40,-37.5 22.09139,0 40,16.78932 40,37.5 z"
         transform="matrix(0.15209487,0,0,0.15711569,26.703264,-4.361211)" />
      <rect
         style="fill:#ffff00;fill-opacity:0;stroke:#ffc000;stroke-width:3.04606771;stroke-miterlimit:4;stroke-opacity:1;stroke-dasharray:none;display:inline"
         id="rect5874-3"
         width="13.043819"
         height="12.701605"
         x="52.065094"
         y="59.171204"
         ry="0" />
    </g>
  </g>
</svg>
